# xmcd
#
# Track frame offsets:
#	183
#	10605
#	23853
#	36040
#	50825
#	62775
#	76320
#	90555
#	104130
#	116698
#	129650
#	142608
#	155628
#	167918
#	180265
#	190743
#	203068
#	216433
#	231493
#	242003
#	254788
#	268740
#	281700
#	294790
#
# Disc length: 4074 seconds
#
# Revision: 2
# Processed by: cddbd v1.4PL0 Copyright (c) Steve Scherf et al.
# Submitted via: audiograbber 1.81.03
#
DISCID=610fe818
DTITLE=Various Artist - Second Time I Met The Blues
DYEAR=1989
DGENRE=Blues
TTITLE0=Elmor James - Talk To Me Baby
TTITLE1=Little Walter - Last Night
TTITLE2=Jimmy Rogers - Chicago Bound
TTITLE3=Muddy Waters - Baby Please Don't Go
TTITLE4=Buddy Guy - Ten Years Ago
TTITLE5=John Lee Hooker - It's My Own Fault
TTITLE6=Sonny Boy Williamson - Help Me
TTITLE7=John Brim - You Got Me
TTITLE8=Bo Diddley - I'm A Man
TTITLE9=Howllin' Wolf - Evil
TTITLE10=Lowell Fulson - Trouble, Trouble
TTITLE11=Jimmy Witherspoon - Time Brings About A Change
TTITLE12=Otis Spann - I'm In Love With You Baby
TTITLE13=Little Walter - Juke
TTITLE14=Billy Stewart - Billy's Blues Pt. 2
TTITLE15=Washboard Sam - Diggin' My Potatoes
TTITLE16=Jimmy Rogers - The World's In A Tangle
TTITLE17=Muddy Waters - She's 19 Years Old
TTITLE18=Sonny Boy Williamson - Let Your Conscience Be Your Guide
TTITLE19=John Lee Hooker - Leave My Wife Alone
TTITLE20=Bo Diddley - Before You Accuse Me
TTITLE21=Howlin' Wolf - I Asked For Water (She Gave Me Gasoline)
TTITLE22=Buddy Guy - Let Me Love You Baby
TTITLE23=Chuck Berry - Thirty Days
EXTD=
EXTT0=Elmore James\n
EXTT1=Little Walter\n
EXTT2=Jimmy Rogers\n
EXTT3=Muddy Waters\n
EXTT4=Buddy Guy\n
EXTT5=John Lee Hooker\n
EXTT6=Sonny Boy Williamson\n
EXTT7=John Brim\n
EXTT8=Bo Diddley\n
EXTT9=Howlin' Wolf\n
EXTT10=Lowell Fulson\n
EXTT11=Jimmy Witherspoon\n
EXTT12=Otis Spann\n
EXTT13=Little Walter\n
EXTT14=Billy Stewart\n
EXTT15=Washboard Sam\n
EXTT16=Jimmy Rogers\n
EXTT17=Muddy Waters\n
EXTT18=Sonny Boy Williamson\n
EXTT19=John Lee Hooker\n
EXTT20=Bo Diddley\n
EXTT21=Howlin' Wolf\n
EXTT22=Buddy Guy\n
EXTT23=Chuck Berry\n
PLAYORDER=
